<?xml version="1.0" standalone="no"?>
<!DOCTYPE svg PUBLIC "-//W3C//DTD SVG 20010904//EN"
 "http://www.w3.org/TR/2001/REC-SVG-20010904/DTD/svg10.dtd">
<svg version="1.0" xmlns="http://www.w3.org/2000/svg"
 width="256.000000pt" height="256.000000pt" viewBox="0 0 256.000000 256.000000"
 preserveAspectRatio="xMidYMid meet">

<g transform="translate(0.000000,256.000000) scale(0.100000,-0.100000)"
fill="#000000" stroke="none">
<path d="M473 2326 c-96 -31 -197 -127 -233 -222 -20 -55 -20 -65 -18 -842 l3
-787 34 -63 c42 -77 115 -144 191 -175 l55 -22 780 0 780 0 61 28 c77 36 154
113 191 192 l28 60 0 780 0 780 -22 55 c-31 76 -98 149 -175 191 l-63 34 -785
2 c-626 2 -793 -1 -827 -11z m237 -1140 c30 -1 35 -4 35 -26 0 -24 -3 -25 -54
-25 -39 0 -57 4 -64 17 -14 22 9 52 32 42 9 -4 32 -8 51 -8z m304 4 c51 -19
19 -70 -43 -70 -25 0 -44 7 -55 19 -21 23 -13 44 13 36 9 -3 26 2 37 10 23 18
18 17 48 5z"/>
</g>
</svg>
